PathFileType	4	(X/Y/Z)	E:\Marcel_BSc\Marcel\30_01_2025\static_00.trc
DataRate	CameraRate	NumFrames	NumMarkers	Units	OrigDataRate	OrigDataStartFrame	OrigNumFrames
200.0	200.0	4	59	mm	200.0	1	158	
Frame#	Time	FHD			LBHD			RBHD			RBAR			LBAR			RASI			RSACR			LSACR			LASI			USACR			C7			CLAV			T10			RSHO			LSHO			LTHI1			LTHI3			LTHI2			LLFC			LMFC			LTIB1			LTIB2			LTIB3			LMMAL			LLMAL			LHEE			LMT1			LMT5			LMT3			RTHI1			RTHI2			RTHI3			RLFC			RMFC			RTIB1			RTIB3			RTIB2			RLMAL			RMMAL			RHEE			RMT5			RMT1			RMT3			LMEP			LLEP			LDUPA			LMUPA			LUUPA			LUL			LRAD			LRFIN			RUL			RRAD			RUFIN			RMEP			RLEP			RMUPA			RDUPA			RUUPA			
		X1	Y1	Z1	X2	Y2	Z2	X3	Y3	Z3	X4	Y4	Z4	X5	Y5	Z5	X6	Y6	Z6	X7	Y7	Z7	X8	Y8	Z8	X9	Y9	Z9	X10	Y10	Z10	X11	Y11	Z11	X12	Y12	Z12	X13	Y13	Z13	X14	Y14	Z14	X15	Y15	Z15	X16	Y16	Z16	X17	Y17	Z17	X18	Y18	Z18	X19	Y19	Z19	X20	Y20	Z20	X21	Y21	Z21	X22	Y22	Z22	X23	Y23	Z23	X24	Y24	Z24	X25	Y25	Z25	X26	Y26	Z26	X27	Y27	Z27	X28	Y28	Z28	X29	Y29	Z29	X30	Y30	Z30	X31	Y31	Z31	X32	Y32	Z32	X33	Y33	Z33	X34	Y34	Z34	X35	Y35	Z35	X36	Y36	Z36	X37	Y37	Z37	X38	Y38	Z38	X39	Y39	Z39	X40	Y40	Z40	X41	Y41	Z41	X42	Y42	Z42	X43	Y43	Z43	X44	Y44	Z44	X45	Y45	Z45	X46	Y46	Z46	X47	Y47	Z47	X48	Y48	Z48	X49	Y49	Z49	X50	Y50	Z50	X51	Y51	Z51	X52	Y52	Z52	X53	Y53	Z53	X54	Y54	Z54	X55	Y55	Z55	X56	Y56	Z56	X57	Y57	Z57	X58	Y58	Z58	X59	Y59	Z59	
1	-0.005	103.04973	1818.2156	-579.87952	135.27089	1803.4235	-521.41479	131.55588	1801.6119	-650.6427	1237.7594	37.496231	-1766.9888	1247.9924	32.435719	457.98203	97.706993	1048.0552	-723.57806	306.32178	1097.8627	-620.39282	301.97504	1095.0393	-556.55829	91.567032	1038.535	-458.0715	297.85083	1111.6705	-588.38428	277.14465	1566.3845	-582.57043	114.36758	1531.2524	-583.75641	278.58582	1256.6597	-576.79382	238.53967	1604.4395	-733.24982	222.21956	1594.4945	-416.25308	226.30183	707.1579	-409.8515	256.26596	651.60187	-428.23071	209.17326	643.85321	-407.80972	220.48471	524.8573	-415.0697	174.07837	506.15656	-516.98138	222.0193	276.42627	-399.94876	269.18237	275.05426	-380.84659	242.67615	214.37766	-391.68845	267.96976	92.612457	-467.96127	287.02786	83.80661	-380.42764	343.92264	39.189877	-422.24942	115.26617	41.444901	-434.39737	145.1297	26.060696	-351.93661	122.65754	36.063164	-388.90408	206.08574	674.84454	-792.31598	253.08109	671.17053	-773.22723	224.79486	613.13306	-781.15002	202.14116	529.34015	-777.74115	178.49625	508.57281	-681.50781	259.47882	277.9021	-811.23285	291.54984	219.57967	-813.88782	240.44727	214.55194	-809.71436	292.7478	75.638481	-813.6662	245.11223	71.146278	-736.37982	339.91724	30.704113	-765.43835	173.10828	26.10482	-862.72559	109.40782	42.523441	-788.41608	134.06436	40.129211	-829.00702	159.13278	1468.9778	-113.71111	232.17073	1508.0081	-115.24381	258.09988	1522.314	-216.40378	225.53064	1560.2009	-218.30875	234.54456	1564.1549	-280.39621	169.06784	1561.7615	168.17079	140.24139	1626.8684	137.44882	166.88046	1655.89	236.80664	215.19756	1592.3164	-1340.7179	194.8275	1659.3625	-1307.1956	225.82272	1682.0564	-1393.6842	177.08768	1484.6554	-1044.8431	246.5583	1539.6221	-1056.7515	245.24736	1577.0042	-909.46295	253.14835	1564.5623	-969.70898	280.04047	1542.059	-898.01752
2	0	103.05914	1818.2051	-579.86304	135.30391	1803.4061	-521.40436	131.56197	1801.6206	-650.64093	1237.7587	37.487999	-1766.9835	1247.9456	32.330414	457.9621	98.080803	1048.2233	-724.32056	306.35184	1097.8623	-620.39771	302.02148	1095.0405	-556.54071	91.592285	1038.5122	-458.08932	297.8894	1111.674	-588.38611	277.17236	1566.3782	-582.57074	114.4008	1531.2437	-583.76025	278.60254	1256.6498	-576.7843	238.5571	1604.4362	-733.25079	222.2653	1594.4979	-416.27017	226.32819	707.14642	-409.87286	256.29663	651.58716	-428.2634	209.19487	643.84094	-407.80966	220.49232	524.84436	-415.06985	174.02971	506.15005	-516.97186	221.98479	276.37741	-399.99692	269.19601	275.03436	-380.85822	242.67339	214.36571	-391.70029	268.02176	92.566055	-467.96637	287.02637	83.798615	-380.43774	343.91037	39.132896	-422.29688	115.2626	41.44453	-434.40213	145.13176	26.061283	-351.94113	122.66162	36.057678	-388.91492	206.11287	674.85498	-792.3075	253.09229	671.18933	-773.21539	224.89589	613.14917	-781.08728	202.1241	529.32434	-777.74573	178.49359	508.57056	-681.50134	259.48166	277.87708	-811.21832	291.39886	219.69666	-813.91046	240.44087	214.53937	-809.7088	292.74539	75.62677	-813.65271	245.10732	71.140236	-736.36847	339.87991	30.706423	-765.4469	173.11888	26.111197	-862.71088	109.39858	42.527023	-788.4176	134.07639	40.136799	-828.98352	159.15707	1468.9908	-113.7293	232.19904	1508.0259	-115.25266	258.12946	1522.3015	-216.41103	225.65483	1560.1378	-218.71999	234.55905	1564.161	-280.40771	169.06914	1561.7765	168.14783	140.27237	1626.8909	137.43208	166.90869	1655.9009	236.79239	215.17522	1592.266	-1340.7197	194.82678	1659.3236	-1307.1931	225.84959	1681.994	-1393.7042	177.13376	1484.6606	-1044.8042	246.52875	1539.6302	-1056.7406	245.24847	1577.0011	-909.46411	253.14284	1564.5297	-969.70081	280.02603	1542.0393	-898.00171
3	0.005	103.07795	1818.1925	-579.8324	135.31142	1803.396	-521.3916	131.56139	1801.6222	-650.63464	1237.7606	37.500534	-1766.988	1247.9949	32.426685	457.97537	97.820518	1048.0649	-723.66577	306.37485	1097.8563	-620.39758	302.04688	1095.051	-556.54382	91.617485	1038.4921	-458.09171	297.76059	1111.7329	-588.49542	277.20038	1566.3912	-582.57587	114.42041	1531.2408	-583.75916	278.61087	1256.6504	-576.77338	238.59059	1604.4395	-733.24658	222.29964	1594.5035	-416.28125	226.35612	707.12329	-409.89597	256.30099	651.56049	-428.29495	209.22705	643.82922	-407.8287	220.5011	524.83014	-415.09073	174.02563	506.15274	-516.98926	221.95779	276.35547	-400.02939	269.19247	275.03052	-380.87067	242.66991	214.3425	-391.73102	268.00809	92.600403	-467.96484	287.0343	83.788315	-380.44513	343.96817	39.196117	-422.2092	115.27078	41.448269	-434.40311	145.13313	26.069958	-351.93982	122.6654	36.058228	-388.91364	206.1413	674.85406	-792.31763	253.082	671.20624	-773.22205	224.90431	613.14166	-781.07556	202.10039	529.34686	-777.75323	178.48399	508.57263	-681.49951	259.45926	277.87338	-811.21899	291.38037	219.69173	-813.91327	240.4297	214.54123	-809.69562	292.75394	75.637505	-813.64337	245.10234	71.141205	-736.35938	339.94424	30.709663	-765.38885	173.11668	26.099789	-862.70892	109.40112	42.517189	-788.4126	134.06248	40.139248	-828.9895	159.18336	1468.9983	-113.73824	232.22487	1508.0325	-115.26147	258.15582	1522.3005	-216.43031	225.68765	1560.1321	-218.74611	234.60062	1564.151	-280.43631	169.06961	1561.7905	168.13824	140.28961	1626.9113	137.42221	166.72948	1655.8158	236.93744	215.14598	1592.2308	-1340.7183	194.8383	1659.2941	-1307.1891	225.85757	1681.9441	-1393.6917	177.10202	1484.6329	-1044.797	246.52577	1539.5856	-1056.7454	245.25684	1576.9856	-909.44971	253.1474	1564.4973	-969.69257	280.01767	1542.0094	-897.98425
4	0.01	103.07594	1818.1864	-579.83014	135.31738	1803.3866	-521.38483	131.56892	1801.6147	-650.61548	1237.757	37.497593	-1766.9852	1248.001	32.435947	457.98944	98.124023	1048.2375	-724.32404	306.41669	1097.8539	-620.39691	302.08206	1095.0416	-556.55237	91.652557	1038.4789	-458.10696	297.79547	1111.7257	-588.50732	277.22623	1566.3896	-582.57715	114.45761	1531.2401	-583.75964	278.62802	1256.6444	-576.75165	238.59363	1604.4375	-733.23645	222.35088	1594.5009	-416.29117	226.37923	707.12463	-409.91269	256.31342	651.55457	-428.30563	209.24744	643.81732	-407.83923	220.49983	524.81488	-415.10535	174.05203	506.13617	-517.00433	221.97601	276.33575	-400.02713	269.19315	275.0141	-380.88303	242.67076	214.34448	-391.73129	268.05475	92.582451	-467.95428	287.03497	83.782921	-380.45346	344.06433	39.241318	-422.11261	115.26498	41.448479	-434.40338	145.13503	26.07283	-351.94699	122.66322	36.060513	-388.91537	206.1254	674.84454	-792.3208	253.12233	671.18945	-773.1933	224.85527	613.15088	-781.10681	202.09967	529.36115	-777.74097	178.4726	508.57401	-681.49341	259.45612	277.87329	-811.19739	291.3645	219.69354	-813.87982	240.43207	214.53908	-809.67548	292.74213	75.633347	-813.63586	245.09137	71.128204	-736.35187	340.10855	30.708635	-765.26062	173.10973	26.115852	-862.69672	109.40663	42.528622	-788.39709	134.07549	40.128502	-828.98517	159.11118	1469.1971	-113.78064	232.23694	1508.0521	-115.27071	258.18192	1522.2932	-216.45337	225.63165	1560.1991	-218.37764	234.63721	1564.1549	-280.44794	169.06891	1561.8145	168.12712	140.30693	1626.934	137.40755	166.72963	1655.8281	236.952	215.12317	1592.1884	-1340.7056	194.85097	1659.2634	-1307.1892	225.86487	1681.8884	-1393.6809	176.89955	1484.6068	-1044.5741	246.52989	1539.5507	-1056.7422	245.28462	1577.1239	-909.34454	253.17252	1564.454	-969.67389	280.01932	1541.9789	-897.96405
